<svg preserveAspectRatio="none" overflow="visible" style="display: block;" width="72" height="72" viewBox="0 0 72 72" fill="none" xmlns="http://www.w3.org/2000/svg">
<g id="Frame">
<path id="Vector" d="M29 49C40.0457 49 49 40.0457 49 29C49 17.9543 40.0457 9 29 9C17.9543 9 9 17.9543 9 29C9 40.0457 17.9543 49 29 49Z" fill="#EEF3FF" stroke="#625B9C" stroke-width="3"/>
<path id="Vector_2" d="M29 43C36.732 43 43 36.732 43 29C43 21.268 36.732 15 29 15C21.268 15 15 21.268 15 29C15 36.732 21.268 43 29 43Z" fill="#477BE0"/>
<g id="Vector_3">
<path d="M44 44L65 65Z" fill="black"/>
<path d="M44 44L65 65" stroke="#625B9C" stroke-width="6" stroke-linecap="round"/>
</g>
</g>
</svg>
